<svg width="28" height="28" viewBox="0 0 28 28" fill="none" xmlns="http://www.w3.org/2000/svg">
<path fill-rule="evenodd" clip-rule="evenodd" d="M19.7061 21.7697C17.6491 23.277 15.0961 24.17 12.33 24.17C5.52046 24.17 0 18.7592 0 12.085C0 5.41078 5.52046 0 12.33 0C19.1395 0 24.66 5.41078 24.66 12.085C24.66 15.0804 23.5482 17.8213 21.7069 19.9328L27.7993 25.9042C28.0669 26.1665 28.0669 26.5917 27.7993 26.8536L26.8307 27.8033C26.5631 28.0656 26.1293 28.0656 25.8621 27.8033L19.7061 21.7697ZM21.92 12.085C21.92 17.2761 17.6263 21.4844 12.33 21.4844C7.03361 21.4844 2.74 17.2761 2.74 12.085C2.74 6.89387 7.03361 2.68556 12.33 2.68556C17.6263 2.68556 21.92 6.89387 21.92 12.085Z" fill=""/>
</svg>
