<svg width="23" height="23" viewBox="0 0 23 23" fill="none" xmlns="http://www.w3.org/2000/svg">
  <path d="M10.542 2.875h1.916c.53 0 .959.43.959.958v.545c0 .41.275.767.653.924.38.157.82.097 1.11-.193l.386-.385a.958.958 0 0 1 1.355 0l1.355 1.355a.958.958 0 0 1 0 1.355l-.385.386c-.29.29-.35.73-.193 1.11.157.378.514.653.924.653h.545c.529 0 .958.43.958.959v1.916c0 .53-.429.959-.958.959h-.545c-.41 0-.767.275-.924.653-.157.38-.097.82.193 1.11l.385.386a.958.958 0 0 1 0 1.355l-1.355 1.355a.958.958 0 0 1-1.355 0l-.386-.385c-.29-.29-.73-.35-1.11-.193-.378.157-.653.514-.653.924v.545c0 .529-.43.958-.959.958h-1.916a.958.958 0 0 1-.959-.958v-.545c0-.41-.275-.767-.653-.924-.38-.157-.82-.097-1.11.193l-.386.385a.958.958 0 0 1-1.355 0l-1.355-1.355a.958.958 0 0 1 0-1.355l.385-.386c.29-.29.35-.73.193-1.11-.157-.378-.514-.653-.924-.653h-.545a.958.958 0 0 1-.958-.959v-1.916c0-.53.43-.959.958-.959h.545c.41 0 .767-.275.924-.653.157-.38.097-.82-.193-1.11l-.385-.386a.958.958 0 0 1 0-1.355l1.355-1.355a.958.958 0 0 1 1.355 0l.386.385c.29.29.73.35 1.11.193.378-.157.653-.514.653-.924v-.545c0-.529.43-.958.959-.958Z" stroke="#3E3E3E" stroke-width="1.438"/>
  <path d="M13.417 11.5a1.917 1.917 0 1 1-3.834 0 1.917 1.917 0 0 1 3.834 0Z" stroke="#3E3E3E" stroke-width="1.438"/>
</svg>
