<?xml version="1.0" encoding="UTF-8"?>
<svg id="Layer_2" data-name="Layer 2" xmlns="http://www.w3.org/2000/svg" viewBox="0 0 82.22 100.4">

  <g id="bin">
    <g>
      <path class="cls-1" d="m25.24,87.64c1.66,0,3-1.34,3-3v-46.65c0-1.66-1.34-3-3-3s-3,1.34-3,3v46.65c0,1.66,1.34,3,3,3Z"/>
      <path class="cls-1" d="m41.11,87.64c1.66,0,3-1.34,3-3v-46.65c0-1.66-1.34-3-3-3s-3,1.34-3,3v46.65c0,1.66,1.34,3,3,3Z"/>
      <path class="cls-1" d="m56.99,87.64c1.66,0,3-1.34,3-3v-46.65c0-1.66-1.34-3-3-3s-3,1.34-3,3v46.65c0,1.66,1.34,3,3,3Z"/>
      <path class="cls-1" d="m16.09,100.4h50.05c4.3,0,7.79-3.5,7.79-7.8V28.23h5.29c1.66,0,3-1.34,3-3v-6.4c0-4.3-3.5-7.8-7.79-7.8h-11.35l-1.79-5.22c-1.19-3.48-4.47-5.81-8.14-5.81h-24.06c-3.68,0-6.95,2.34-8.15,5.82l-1.79,5.22H7.79c-4.3,0-7.79,3.5-7.79,7.8v6.4c0,1.66,1.34,3,3,3h5.29v64.38c0,4.3,3.5,7.8,7.79,7.8Zm51.84-7.8c0,.99-.81,1.8-1.79,1.8H16.09c-.99,0-1.79-.81-1.79-1.8V28.23h53.64v64.38ZM26.61,7.76c.36-1.05,1.35-1.76,2.47-1.76h24.06c1.12,0,2.11.71,2.47,1.76l1.12,3.28h-31.25l1.12-3.28ZM6,18.83c0-.99.81-1.8,1.79-1.8h66.63c.99,0,1.79.81,1.79,1.8v3.4H6v-3.4Z"/>
    </g>
  </g>
</svg>