<svg width="17" height="17" viewBox="0 0 17 17" fill="none" xmlns="http://www.w3.org/2000/svg">
<path fill-rule="evenodd" clip-rule="evenodd" d="M11.9644 13.2173C10.7155 14.1325 9.16547 14.6746 7.48606 14.6746C3.35171 14.6746 0 11.3895 0 7.33732C0 3.28512 3.35171 0 7.48606 0C11.6204 0 14.9721 3.28512 14.9721 7.33732C14.9721 9.15593 14.2971 10.8201 13.1792 12.1021L16.8782 15.7276C17.0406 15.8868 17.0406 16.1449 16.8782 16.304L16.2901 16.8806C16.1276 17.0398 15.8642 17.0398 15.702 16.8806L11.9644 13.2173ZM13.3086 7.33732C13.3086 10.4891 10.7017 13.0441 7.48606 13.0441C4.27041 13.0441 1.66357 10.4891 1.66357 7.33732C1.66357 4.18556 4.27041 1.63052 7.48606 1.63052C10.7017 1.63052 13.3086 4.18556 13.3086 7.33732Z" fill=""/>
</svg>
