<svg width="16" height="19" viewBox="0 0 16 19" fill="none" xmlns="http://www.w3.org/2000/svg">
<path d="M11.8088 5.19091C11.8088 7.55313 9.99921 9.38182 7.87074 9.38182C5.74226 9.38182 3.93266 7.55313 3.93266 5.19091C3.93266 2.82869 5.74226 1 7.87074 1C9.99921 1 11.8088 2.82869 11.8088 5.19091ZM0.999815 18.3832C0.999678 18.3833 0.999572 18.3813 0.999904 18.3774C1.00012 18.3813 0.999951 18.3832 0.999815 18.3832ZM1.12802 17.9581C2.15288 14.9741 4.84701 12.736 7.87072 12.736C10.9253 12.736 13.8226 15.0052 14.8557 17.9581H1.12802ZM15 18.4541C15 18.4541 15 18.4531 15 18.4512C15.0001 18.4532 15.0001 18.4542 15 18.4541Z" stroke="" stroke-width="2"/>
</svg>
